<svg xmlns="http://www.w3.org/2000/svg" xmlns:xlink="http://www.w3.org/1999/xlink" width="512" zoomAndPan="magnify" viewBox="0 0 384 383.999986" height="512" preserveAspectRatio="xMidYMid meet" version="1.0"><defs><clipPath id="74beef1fc3"><path d="M 41 133 L 343.355469 133 L 343.355469 345.898438 L 41 345.898438 Z M 41 133 " clip-rule="nonzero"/></clipPath><clipPath id="6edeb20409"><path d="M 40.355469 168 L 285 168 L 285 292 L 40.355469 292 Z M 40.355469 168 " clip-rule="nonzero"/></clipPath><clipPath id="645459b51e"><path d="M 145 38.398438 L 180 38.398438 L 180 209 L 145 209 Z M 145 38.398438 " clip-rule="nonzero"/></clipPath><clipPath id="89ebda9c80"><path d="M 111.515625 225.929688 L 125.890625 225.929688 L 125.890625 241.734375 L 111.515625 241.734375 Z M 111.515625 225.929688 " clip-rule="nonzero"/></clipPath></defs><g clip-path="url(#74beef1fc3)"><path fill="#08ab0b" d="M 229.363281 253.945312 L 264.542969 253.945312 C 280.871094 253.945312 304.15625 263.925781 304.15625 282.976562 C 304.15625 302.933594 280.871094 308.378906 264.542969 308.378906 L 41.113281 308.378906 L 41.113281 345.574219 C 74.675781 345.574219 230.972656 345.574219 264.542969 345.574219 C 308.390625 345.574219 343.773438 330.453125 343.773438 283.277344 C 343.773438 269.972656 334.703125 243.664062 309.902344 236.101562 C 329.5625 227.332031 337.421875 211.558594 337.421875 195.125 C 337.421875 152.335938 306.273438 133.585938 264.542969 133.585938 L 229.363281 133.585938 L 229.363281 169.875 L 264.542969 169.875 C 289.945312 169.875 297.808594 186.304688 297.808594 196.035156 C 297.808594 208.230469 289.644531 218.863281 264.542969 218.863281 L 229.363281 218.863281 Z M 229.363281 253.945312 " fill-opacity="1" fill-rule="nonzero"/></g><path fill="#808080" d="M 232.316406 246.675781 L 198.570312 246.675781 L 198.570312 89.679688 L 232.316406 105.449219 Z M 232.316406 246.675781 " fill-opacity="1" fill-rule="evenodd"/><g clip-path="url(#6edeb20409)"><path fill="#808080" d="M 236.648438 291.035156 L 162.296875 216.683594 L 87.945312 291.035156 L 40.21875 291.035156 L 162.296875 168.957031 L 284.375 291.035156 Z M 236.648438 291.035156 " fill-opacity="1" fill-rule="evenodd"/></g><g clip-path="url(#645459b51e)"><path fill="#808080" d="M 179.167969 208.21875 L 145.421875 208.21875 L 145.421875 58.78125 L 179.167969 38.398438 Z M 179.167969 208.21875 " fill-opacity="1" fill-rule="evenodd"/></g><path fill="#808080" d="M 126.023438 246.289062 L 92.277344 246.289062 L 92.277344 158.195312 L 126.023438 133.585938 Z M 126.023438 246.289062 " fill-opacity="1" fill-rule="evenodd"/><g clip-path="url(#89ebda9c80)"><path fill="#808080" d="M 111.515625 225.929688 L 125.890625 225.929688 L 125.890625 241.707031 L 111.515625 241.707031 Z M 111.515625 225.929688 " fill-opacity="1" fill-rule="nonzero"/></g></svg>